<?xml version="1.0" encoding="UTF-8" standalone="no"?>
<!DOCTYPE svg PUBLIC "-//W3C//DTD SVG 1.1//EN"
 "http://www.w3.org/Graphics/SVG/1.1/DTD/svg11.dtd">
<!-- Generated by graphviz version 7.1.0 (0)
 -->
<!-- Title: /home/joshuam/Dropbox/Projects/little&#45;hell&#45;engine/src/graphics/drawable.c Pages: 1 -->
<svg width="898pt" height="159pt"
 viewBox="0.00 0.00 898.00 159.00" xmlns="http://www.w3.org/2000/svg" xmlns:xlink="http://www.w3.org/1999/xlink">
<g id="graph0" class="graph" transform="scale(1 1) rotate(0) translate(4 155)">
<title>/home/joshuam/Dropbox/Projects/little&#45;hell&#45;engine/src/graphics/drawable.c</title>
<!-- Node1 -->
<g id="node1" class="node">
<title>Node1</title>
<g id="a_node1"><a xlink:title=" ">
<polygon fill="#999999" stroke="#666666" points="552,-151 381,-151 381,-110 552,-110 552,-151"/>
<text text-anchor="start" x="389" y="-139" font-family="Helvetica,sans-Serif" font-size="10.00">/home/joshuam/Dropbox</text>
<text text-anchor="start" x="389" y="-128" font-family="Helvetica,sans-Serif" font-size="10.00">/Projects/little&#45;hell</text>
<text text-anchor="middle" x="466.5" y="-117" font-family="Helvetica,sans-Serif" font-size="10.00">&#45;engine/src/graphics/drawable.c</text>
</a>
</g>
</g>
<!-- Node2 -->
<g id="node2" class="node">
<title>Node2</title>
<g id="a_node2"><a xlink:title=" ">
<polygon fill="#e0e0e0" stroke="#999999" points="59,-74 0,-74 0,-55 59,-55 59,-74"/>
<text text-anchor="middle" x="29.5" y="-62" font-family="Helvetica,sans-Serif" font-size="10.00">../../log.h</text>
</a>
</g>
</g>
<!-- Node1&#45;&gt;Node2 -->
<g id="edge1" class="edge">
<title>Node1&#45;&gt;Node2</title>
<path fill="none" stroke="#63b8ff" d="M380.56,-119.61C302.15,-110.11 182.85,-94.49 70.52,-74.43"/>
<polygon fill="#63b8ff" stroke="#63b8ff" points="71.28,-71.01 60.81,-72.68 70.03,-77.9 71.28,-71.01"/>
</g>
<!-- Node3 -->
<g id="node3" class="node">
<title>Node3</title>
<g id="a_node3"><a xlink:title=" ">
<polygon fill="#e0e0e0" stroke="#999999" points="154,-74 77,-74 77,-55 154,-55 154,-74"/>
<text text-anchor="middle" x="115.5" y="-62" font-family="Helvetica,sans-Serif" font-size="10.00">../../z_zone.h</text>
</a>
</g>
</g>
<!-- Node1&#45;&gt;Node3 -->
<g id="edge2" class="edge">
<title>Node1&#45;&gt;Node3</title>
<path fill="none" stroke="#63b8ff" d="M380.64,-113.84C313.04,-101.52 221.19,-84.77 165.25,-74.57"/>
<polygon fill="#63b8ff" stroke="#63b8ff" points="166.17,-71.18 155.71,-72.83 164.92,-78.07 166.17,-71.18"/>
</g>
<!-- Node4 -->
<g id="node4" class="node">
<title>Node4</title>
<g id="a_node4"><a xlink:title=" ">
<polygon fill="#e0e0e0" stroke="#999999" points="260.5,-74 172.5,-74 172.5,-55 260.5,-55 260.5,-74"/>
<text text-anchor="middle" x="216.5" y="-62" font-family="Helvetica,sans-Serif" font-size="10.00">../../i_system.h</text>
</a>
</g>
</g>
<!-- Node1&#45;&gt;Node4 -->
<g id="edge3" class="edge">
<title>Node1&#45;&gt;Node4</title>
<path fill="none" stroke="#63b8ff" d="M388.43,-109.51C347.06,-98.92 297.67,-86.28 262.46,-77.27"/>
<polygon fill="#63b8ff" stroke="#63b8ff" points="263.58,-73.94 253.02,-74.85 261.84,-80.72 263.58,-73.94"/>
</g>
<!-- Node5 -->
<g id="node5" class="node">
<title>Node5</title>
<g id="a_node5"><a xlink:title=" ">
<polygon fill="#e0e0e0" stroke="#999999" points="360.5,-74 278.5,-74 278.5,-55 360.5,-55 360.5,-74"/>
<text text-anchor="middle" x="319.5" y="-62" font-family="Helvetica,sans-Serif" font-size="10.00">../../v_video.h</text>
</a>
</g>
</g>
<!-- Node1&#45;&gt;Node5 -->
<g id="edge4" class="edge">
<title>Node1&#45;&gt;Node5</title>
<path fill="none" stroke="#63b8ff" d="M420.79,-109.6C397.79,-99.59 370.53,-87.72 350.08,-78.81"/>
<polygon fill="#63b8ff" stroke="#63b8ff" points="351.74,-75.72 341.17,-74.93 348.94,-82.14 351.74,-75.72"/>
</g>
<!-- Node6 -->
<g id="node6" class="node">
<title>Node6</title>
<g id="a_node6"><a xlink:title=" ">
<polygon fill="#e0e0e0" stroke="#999999" points="456,-74 379,-74 379,-55 456,-55 456,-74"/>
<text text-anchor="middle" x="417.5" y="-62" font-family="Helvetica,sans-Serif" font-size="10.00">../../i_swap.h</text>
</a>
</g>
</g>
<!-- Node1&#45;&gt;Node6 -->
<g id="edge5" class="edge">
<title>Node1&#45;&gt;Node6</title>
<path fill="none" stroke="#63b8ff" d="M451.26,-109.6C444.79,-101.15 437.31,-91.38 431.04,-83.18"/>
<polygon fill="#63b8ff" stroke="#63b8ff" points="433.91,-81.18 425.05,-75.36 428.35,-85.43 433.91,-81.18"/>
</g>
<!-- Node7 -->
<g id="node7" class="node">
<title>Node7</title>
<g id="a_node7"><a xlink:title=" ">
<polygon fill="#e0e0e0" stroke="#999999" points="556.5,-74 474.5,-74 474.5,-55 556.5,-55 556.5,-74"/>
<text text-anchor="middle" x="515.5" y="-62" font-family="Helvetica,sans-Serif" font-size="10.00">../../m_misc.h</text>
</a>
</g>
</g>
<!-- Node1&#45;&gt;Node7 -->
<g id="edge6" class="edge">
<title>Node1&#45;&gt;Node7</title>
<path fill="none" stroke="#63b8ff" d="M481.74,-109.6C488.21,-101.15 495.69,-91.38 501.96,-83.18"/>
<polygon fill="#63b8ff" stroke="#63b8ff" points="504.65,-85.43 507.95,-75.36 499.09,-81.18 504.65,-85.43"/>
</g>
<!-- Node8 -->
<g id="node8" class="node">
<title>Node8</title>
<g id="a_node8"><a xlink:title=" ">
<polygon fill="#e0e0e0" stroke="#999999" points="771.5,-19 667.5,-19 667.5,0 771.5,0 771.5,-19"/>
<text text-anchor="middle" x="719.5" y="-7" font-family="Helvetica,sans-Serif" font-size="10.00">../../doom/r_defs.h</text>
</a>
</g>
</g>
<!-- Node1&#45;&gt;Node8 -->
<g id="edge7" class="edge">
<title>Node1&#45;&gt;Node8</title>
<path fill="none" stroke="#63b8ff" d="M500.48,-109.6C528.05,-93.84 568.16,-71.76 604.5,-55 630.23,-43.13 660.09,-31.64 682.93,-23.31"/>
<polygon fill="#63b8ff" stroke="#63b8ff" points="683.89,-26.69 692.11,-20 681.52,-20.1 683.89,-26.69"/>
</g>
<!-- Node9 -->
<g id="node9" class="node">
<title>Node9</title>
<g id="a_node9"><a xlink:title=" ">
<polygon fill="#e0e0e0" stroke="#999999" points="690,-74 613,-74 613,-55 690,-55 690,-74"/>
<text text-anchor="middle" x="651.5" y="-62" font-family="Helvetica,sans-Serif" font-size="10.00">../../w_wad.h</text>
</a>
</g>
</g>
<!-- Node1&#45;&gt;Node9 -->
<g id="edge8" class="edge">
<title>Node1&#45;&gt;Node9</title>
<path fill="none" stroke="#63b8ff" d="M524.27,-109.51C553.83,-99.29 588.91,-87.15 614.74,-78.22"/>
<polygon fill="#63b8ff" stroke="#63b8ff" points="615.82,-81.55 624.13,-74.97 613.53,-74.93 615.82,-81.55"/>
</g>
<!-- Node10 -->
<g id="node10" class="node">
<title>Node10</title>
<g id="a_node10"><a xlink:title=" ">
<polygon fill="#e0e0e0" stroke="#999999" points="801,-74 708,-74 708,-55 801,-55 801,-74"/>
<text text-anchor="middle" x="754.5" y="-62" font-family="Helvetica,sans-Serif" font-size="10.00">../../doomtype.h</text>
</a>
</g>
</g>
<!-- Node1&#45;&gt;Node10 -->
<g id="edge9" class="edge">
<title>Node1&#45;&gt;Node10</title>
<path fill="none" stroke="#63b8ff" d="M552.13,-110.47C601.19,-99.57 661.13,-86.25 702.99,-76.95"/>
<polygon fill="#63b8ff" stroke="#63b8ff" points="703.54,-80.41 712.55,-74.82 702.03,-73.58 703.54,-80.41"/>
</g>
<!-- Node11 -->
<g id="node11" class="node">
<title>Node11</title>
<g id="a_node11"><a xlink:href="drawable_8h.html" target="_top" xlink:title=" ">
<polygon fill="white" stroke="#666666" points="890,-74 819,-74 819,-55 890,-55 890,-74"/>
<text text-anchor="middle" x="854.5" y="-62" font-family="Helvetica,sans-Serif" font-size="10.00">drawable.h</text>
</a>
</g>
</g>
<!-- Node1&#45;&gt;Node11 -->
<g id="edge10" class="edge">
<title>Node1&#45;&gt;Node11</title>
<path fill="none" stroke="#63b8ff" d="M552.15,-116.43C619.1,-106.05 714.81,-90.82 807.67,-74.46"/>
<polygon fill="#63b8ff" stroke="#63b8ff" points="808.25,-77.91 817.49,-72.72 807.03,-71.02 808.25,-77.91"/>
</g>
<!-- Node11&#45;&gt;Node8 -->
<g id="edge11" class="edge">
<title>Node11&#45;&gt;Node8</title>
<path fill="none" stroke="#63b8ff" d="M831.6,-54.51C809.94,-46.01 777.19,-33.15 752.68,-23.53"/>
<polygon fill="#63b8ff" stroke="#63b8ff" points="754.06,-20.31 743.47,-19.91 751.5,-26.82 754.06,-20.31"/>
</g>
</g>
</svg>
