<?xml version="1.0" encoding="UTF-8" standalone="no"?>
<!DOCTYPE svg PUBLIC "-//W3C//DTD SVG 1.1//EN"
 "http://www.w3.org/Graphics/SVG/1.1/DTD/svg11.dtd">
<!-- Generated by graphviz version 7.1.0 (0)
 -->
<!-- Title: System (Developer API) Pages: 1 -->
<svg width="260pt" height="101pt"
 viewBox="0.00 0.00 260.00 101.00" xmlns="http://www.w3.org/2000/svg" xmlns:xlink="http://www.w3.org/1999/xlink">
<g id="graph0" class="graph" transform="scale(1 1) rotate(0) translate(4 97)">
<title>System (Developer API)</title>
<!-- Node2 -->
<g id="node1" class="node">
<title>Node2</title>
<g id="a_node1"><a xlink:href="group___exit.html" target="_top" xlink:title=" ">
<polygon fill="white" stroke="#666666" points="228,-93 193,-93 193,-74 228,-74 228,-93"/>
<text text-anchor="middle" x="210.5" y="-81" font-family="Helvetica,sans-Serif" font-size="10.00">Exit</text>
</a>
</g>
</g>
<!-- Node3 -->
<g id="node2" class="node">
<title>Node3</title>
<g id="a_node2"><a xlink:href="group___mem_i_o.html" target="_top" xlink:title=" ">
<polygon fill="white" stroke="#666666" points="247.5,-56 173.5,-56 173.5,-37 247.5,-37 247.5,-56"/>
<text text-anchor="middle" x="210.5" y="-44" font-family="Helvetica,sans-Serif" font-size="10.00">Memory I/O</text>
</a>
</g>
</g>
<!-- Node4 -->
<g id="node3" class="node">
<title>Node4</title>
<g id="a_node3"><a xlink:href="group___sleep.html" target="_top" xlink:title=" ">
<polygon fill="white" stroke="#666666" points="252,-19 169,-19 169,0 252,0 252,-19"/>
<text text-anchor="middle" x="210.5" y="-7" font-family="Helvetica,sans-Serif" font-size="10.00">Sleep Module</text>
</a>
</g>
</g>
<!-- Node1 -->
<g id="node4" class="node">
<title>Node1</title>
<g id="a_node4"><a xlink:title="Cross&#45;platform operating system functions and utilities.">
<polygon fill="#999999" stroke="#666666" points="133,-56 0,-56 0,-37 133,-37 133,-56"/>
<text text-anchor="middle" x="66.5" y="-44" font-family="Helvetica,sans-Serif" font-size="10.00">System (Developer API)</text>
</a>
</g>
</g>
<!-- Node1&#45;&gt;Node2 -->
<g id="edge1" class="edge">
<title>Node1&#45;&gt;Node2</title>
<path fill="none" stroke="black" d="M116.59,-59.29C143.09,-66.2 174.12,-74.28 192.77,-79.14"/>
<polygon fill="black" stroke="black" points="117.58,-55.93 107.02,-56.8 115.81,-62.71 117.58,-55.93"/>
</g>
<!-- Node1&#45;&gt;Node3 -->
<g id="edge2" class="edge">
<title>Node1&#45;&gt;Node3</title>
<path fill="none" stroke="black" d="M144.44,-46.5C154.47,-46.5 164.33,-46.5 173.24,-46.5"/>
<polygon fill="black" stroke="black" points="144.61,-43 134.61,-46.5 144.61,-50 144.61,-43"/>
</g>
<!-- Node1&#45;&gt;Node4 -->
<g id="edge3" class="edge">
<title>Node1&#45;&gt;Node4</title>
<path fill="none" stroke="black" d="M116.68,-33.69C134.58,-29.02 154.54,-23.82 171.34,-19.44"/>
<polygon fill="black" stroke="black" points="115.81,-30.29 107.02,-36.2 117.58,-37.07 115.81,-30.29"/>
</g>
</g>
</svg>
