<?xml version="1.0" encoding="UTF-8" standalone="no"?>
<!DOCTYPE svg PUBLIC "-//W3C//DTD SVG 1.1//EN"
 "http://www.w3.org/Graphics/SVG/1.1/DTD/svg11.dtd">
<!-- Generated by graphviz version 7.1.0 (0)
 -->
<!-- Title: System Pages: 1 -->
<svg width="224pt" height="138pt"
 viewBox="0.00 0.00 224.00 138.00" xmlns="http://www.w3.org/2000/svg" xmlns:xlink="http://www.w3.org/1999/xlink">
<g id="graph0" class="graph" transform="scale(1 1) rotate(0) translate(4 134)">
<title>System</title>
<!-- Node2 -->
<g id="node1" class="node">
<title>Node2</title>
<g id="a_node1"><a xlink:href="group___exit_a_p_i.html" target="_top" xlink:title=" ">
<polygon fill="white" stroke="#666666" points="210,-130 95,-130 95,-111 210,-111 210,-130"/>
<text text-anchor="middle" x="152.5" y="-118" font-family="Helvetica,sans-Serif" font-size="10.00">Exit (Developer API)</text>
</a>
</g>
</g>
<!-- Node3 -->
<g id="node2" class="node">
<title>Node3</title>
<g id="a_node2"><a xlink:href="group___mem_i_o_internals.html" target="_top" xlink:title=" ">
<polygon fill="white" stroke="#666666" points="216,-93 89,-93 89,-74 216,-74 216,-93"/>
<text text-anchor="middle" x="152.5" y="-81" font-family="Helvetica,sans-Serif" font-size="10.00">Memory I/O (Internals)</text>
</a>
</g>
</g>
<!-- Node5 -->
<g id="node3" class="node">
<title>Node5</title>
<g id="a_node3"><a xlink:href="group___sleep_a_p_i.html" target="_top" xlink:title=" ">
<polygon fill="white" stroke="#666666" points="214,-56 91,-56 91,-37 214,-37 214,-56"/>
<text text-anchor="middle" x="152.5" y="-44" font-family="Helvetica,sans-Serif" font-size="10.00">Sleep (Developer API)</text>
</a>
</g>
</g>
<!-- Node4 -->
<g id="node4" class="node">
<title>Node4</title>
<g id="a_node4"><a xlink:href="group___sleep_internals.html" target="_top" xlink:title="Internal documentation of Sleep for engine developers.">
<polygon fill="white" stroke="#666666" points="201,-19 104,-19 104,0 201,0 201,-19"/>
<text text-anchor="middle" x="152.5" y="-7" font-family="Helvetica,sans-Serif" font-size="10.00">Sleep (Internals)</text>
</a>
</g>
</g>
<!-- Node1 -->
<g id="node5" class="node">
<title>Node1</title>
<g id="a_node5"><a xlink:title="Cross&#45;platform operating system functions and utilities.">
<polygon fill="#999999" stroke="#666666" points="53,-74 0,-74 0,-55 53,-55 53,-74"/>
<text text-anchor="middle" x="26.5" y="-62" font-family="Helvetica,sans-Serif" font-size="10.00">System</text>
</a>
</g>
</g>
<!-- Node1&#45;&gt;Node2 -->
<g id="edge1" class="edge">
<title>Node1&#45;&gt;Node2</title>
<path fill="none" stroke="black" d="M50.51,-80.8C61.72,-88.2 75.65,-96.59 89,-102.5 95.92,-105.56 103.49,-108.26 110.91,-110.56"/>
<polygon fill="black" stroke="black" points="52.56,-77.96 42.32,-75.24 48.63,-83.76 52.56,-77.96"/>
</g>
<!-- Node1&#45;&gt;Node3 -->
<g id="edge2" class="edge">
<title>Node1&#45;&gt;Node3</title>
<path fill="none" stroke="black" d="M64.83,-70.22C72.41,-71.38 80.57,-72.63 88.75,-73.89"/>
<polygon fill="black" stroke="black" points="65.41,-66.77 54.99,-68.71 64.35,-73.69 65.41,-66.77"/>
</g>
<!-- Node1&#45;&gt;Node5 -->
<g id="edge4" class="edge">
<title>Node1&#45;&gt;Node5</title>
<path fill="none" stroke="black" d="M64.84,-59.08C72.97,-57.9 81.77,-56.62 90.55,-55.35"/>
<polygon fill="black" stroke="black" points="64.39,-55.61 54.99,-60.51 65.39,-62.54 64.39,-55.61"/>
</g>
<!-- Node1&#45;&gt;Node4 -->
<g id="edge3" class="edge">
<title>Node1&#45;&gt;Node4</title>
<path fill="none" stroke="black" d="M51.55,-48.65C62.63,-41.82 76.16,-34.12 89,-28.5 96.79,-25.09 105.38,-22.05 113.64,-19.45"/>
<polygon fill="black" stroke="black" points="50,-45.49 43.42,-53.79 53.75,-51.4 50,-45.49"/>
</g>
</g>
</svg>
