<?xml version="1.0" encoding="UTF-8" standalone="no"?>
<!DOCTYPE svg PUBLIC "-//W3C//DTD SVG 1.1//EN"
 "http://www.w3.org/Graphics/SVG/1.1/DTD/svg11.dtd">
<!-- Generated by graphviz version 7.1.0 (0)
 -->
<!-- Title: Graphics Pages: 1 -->
<svg width="246pt" height="64pt"
 viewBox="0.00 0.00 246.00 64.00" xmlns="http://www.w3.org/2000/svg" xmlns:xlink="http://www.w3.org/1999/xlink">
<g id="graph0" class="graph" transform="scale(1 1) rotate(0) translate(4 60)">
<title>Graphics</title>
<!-- Node3 -->
<g id="node1" class="node">
<title>Node3</title>
<g id="a_node1"><a xlink:href="group___drawable_a_p_i.html" target="_top" xlink:title="Drawable is any 2D element shown on screen that is not part of the game world.">
<polygon fill="white" stroke="#666666" points="238,-56 95,-56 95,-37 238,-37 238,-56"/>
<text text-anchor="middle" x="166.5" y="-44" font-family="Helvetica,sans-Serif" font-size="10.00">Drawable (Developer API)</text>
</a>
</g>
</g>
<!-- Node2 -->
<g id="node2" class="node">
<title>Node2</title>
<g id="a_node2"><a xlink:href="group___drawable_internals.html" target="_top" xlink:title="Internal documentation of Drawable for engine developers.">
<polygon fill="white" stroke="#666666" points="224.5,-19 108.5,-19 108.5,0 224.5,0 224.5,-19"/>
<text text-anchor="middle" x="166.5" y="-7" font-family="Helvetica,sans-Serif" font-size="10.00">Drawable (Internals)</text>
</a>
</g>
</g>
<!-- Node1 -->
<g id="node3" class="node">
<title>Node1</title>
<g id="a_node3"><a xlink:title="The graphics module handles all 2D and 3D video rendering.">
<polygon fill="#999999" stroke="#666666" points="59,-37 0,-37 0,-18 59,-18 59,-37"/>
<text text-anchor="middle" x="29.5" y="-25" font-family="Helvetica,sans-Serif" font-size="10.00">Graphics</text>
</a>
</g>
</g>
<!-- Node1&#45;&gt;Node3 -->
<g id="edge2" class="edge">
<title>Node1&#45;&gt;Node3</title>
<path fill="none" stroke="black" d="M70.84,-33.18C78.4,-34.24 86.52,-35.38 94.7,-36.54"/>
<polygon fill="black" stroke="black" points="71.35,-29.71 60.96,-31.79 70.37,-36.65 71.35,-29.71"/>
</g>
<!-- Node1&#45;&gt;Node2 -->
<g id="edge1" class="edge">
<title>Node1&#45;&gt;Node2</title>
<path fill="none" stroke="black" d="M70.73,-22.14C82.51,-20.56 95.63,-18.82 108.25,-17.13"/>
<polygon fill="black" stroke="black" points="70.41,-18.65 60.96,-23.44 71.34,-25.59 70.41,-18.65"/>
</g>
</g>
</svg>
