<?xml version="1.0" encoding="UTF-8" standalone="no"?>
<!DOCTYPE svg PUBLIC "-//W3C//DTD SVG 1.1//EN"
 "http://www.w3.org/Graphics/SVG/1.1/DTD/svg11.dtd">
<!-- Generated by graphviz version 7.1.0 (0)
 -->
<!-- Title: System Module (Developer API) Pages: 1 -->
<svg width="329pt" height="101pt"
 viewBox="0.00 0.00 329.00 101.00" xmlns="http://www.w3.org/2000/svg" xmlns:xlink="http://www.w3.org/1999/xlink">
<g id="graph0" class="graph" transform="scale(1 1) rotate(0) translate(4 97)">
<title>System Module (Developer API)</title>
<!-- Node2 -->
<g id="node1" class="node">
<title>Node2</title>
<g id="a_node1"><a xlink:href="group___exit_module.html" target="_top" xlink:title=" ">
<polygon fill="white" stroke="#666666" points="301.5,-93 227.5,-93 227.5,-74 301.5,-74 301.5,-93"/>
<text text-anchor="middle" x="264.5" y="-81" font-family="Helvetica,sans-Serif" font-size="10.00">Exit Module</text>
</a>
</g>
</g>
<!-- Node3 -->
<g id="node2" class="node">
<title>Node3</title>
<g id="a_node2"><a xlink:href="group___mem_i_o_module.html" target="_top" xlink:title=" ">
<polygon fill="white" stroke="#666666" points="321,-56 208,-56 208,-37 321,-37 321,-56"/>
<text text-anchor="middle" x="264.5" y="-44" font-family="Helvetica,sans-Serif" font-size="10.00">Memory I/O Module</text>
</a>
</g>
</g>
<!-- Node4 -->
<g id="node3" class="node">
<title>Node4</title>
<g id="a_node3"><a xlink:href="group___sleep_module.html" target="_top" xlink:title=" ">
<polygon fill="white" stroke="#666666" points="306,-19 223,-19 223,0 306,0 306,-19"/>
<text text-anchor="middle" x="264.5" y="-7" font-family="Helvetica,sans-Serif" font-size="10.00">Sleep Module</text>
</a>
</g>
</g>
<!-- Node1 -->
<g id="node4" class="node">
<title>Node1</title>
<g id="a_node4"><a xlink:title="Cross&#45;platform operating system functions and utilities.">
<polygon fill="#999999" stroke="#666666" points="172,-56 0,-56 0,-37 172,-37 172,-56"/>
<text text-anchor="middle" x="86" y="-44" font-family="Helvetica,sans-Serif" font-size="10.00">System Module (Developer API)</text>
</a>
</g>
</g>
<!-- Node1&#45;&gt;Node2 -->
<g id="edge1" class="edge">
<title>Node1&#45;&gt;Node2</title>
<path fill="none" stroke="black" d="M145.21,-58.7C172.29,-64.38 203.65,-70.95 227.27,-75.91"/>
<polygon fill="black" stroke="black" points="146.29,-55.35 135.78,-56.73 144.85,-62.2 146.29,-55.35"/>
</g>
<!-- Node1&#45;&gt;Node3 -->
<g id="edge2" class="edge">
<title>Node1&#45;&gt;Node3</title>
<path fill="none" stroke="black" d="M183.9,-46.5C192,-46.5 200.01,-46.5 207.64,-46.5"/>
<polygon fill="black" stroke="black" points="183.92,-43 173.92,-46.5 183.92,-50 183.92,-43"/>
</g>
<!-- Node1&#45;&gt;Node4 -->
<g id="edge3" class="edge">
<title>Node1&#45;&gt;Node4</title>
<path fill="none" stroke="black" d="M145.27,-34.28C170.61,-28.97 199.69,-22.88 222.67,-18.06"/>
<polygon fill="black" stroke="black" points="144.85,-30.8 135.78,-36.27 146.29,-37.65 144.85,-30.8"/>
</g>
</g>
</svg>
