<?xml version="1.0" encoding="UTF-8" standalone="no"?>
<!DOCTYPE svg PUBLIC "-//W3C//DTD SVG 1.1//EN"
 "http://www.w3.org/Graphics/SVG/1.1/DTD/svg11.dtd">
<!-- Generated by graphviz version 7.1.0 (0)
 -->
<!-- Title: /home/joshuam/Dropbox/Projects/little&#45;hell&#45;engine/src/libs/log.c Pages: 1 -->
<svg width="278pt" height="159pt"
 viewBox="0.00 0.00 278.00 159.00" xmlns="http://www.w3.org/2000/svg" xmlns:xlink="http://www.w3.org/1999/xlink">
<g id="graph0" class="graph" transform="scale(1 1) rotate(0) translate(4 155)">
<title>/home/joshuam/Dropbox/Projects/little&#45;hell&#45;engine/src/libs/log.c</title>
<!-- Node1 -->
<g id="node1" class="node">
<title>Node1</title>
<g id="a_node1"><a xlink:title=" ">
<polygon fill="#999999" stroke="#666666" points="202.5,-151 65.5,-151 65.5,-110 202.5,-110 202.5,-151"/>
<text text-anchor="start" x="73.5" y="-139" font-family="Helvetica,sans-Serif" font-size="10.00">/home/joshuam/Dropbox</text>
<text text-anchor="start" x="73.5" y="-128" font-family="Helvetica,sans-Serif" font-size="10.00">/Projects/little&#45;hell</text>
<text text-anchor="middle" x="134" y="-117" font-family="Helvetica,sans-Serif" font-size="10.00">&#45;engine/src/libs/log.c</text>
</a>
</g>
</g>
<!-- Node2 -->
<g id="node2" class="node">
<title>Node2</title>
<g id="a_node2"><a xlink:href="log_8h.html" target="_top" xlink:title=" ">
<polygon fill="white" stroke="#666666" points="154.5,-74 113.5,-74 113.5,-55 154.5,-55 154.5,-74"/>
<text text-anchor="middle" x="134" y="-62" font-family="Helvetica,sans-Serif" font-size="10.00">log.h</text>
</a>
</g>
</g>
<!-- Node1&#45;&gt;Node2 -->
<g id="edge1" class="edge">
<title>Node1&#45;&gt;Node2</title>
<path fill="none" stroke="#63b8ff" d="M134,-109.6C134,-101.98 134,-93.3 134,-85.66"/>
<polygon fill="#63b8ff" stroke="#63b8ff" points="137.5,-85.68 134,-75.68 130.5,-85.68 137.5,-85.68"/>
</g>
<!-- Node3 -->
<g id="node3" class="node">
<title>Node3</title>
<g id="a_node3"><a xlink:title=" ">
<polygon fill="#e0e0e0" stroke="#999999" points="50,-19 0,-19 0,0 50,0 50,-19"/>
<text text-anchor="middle" x="25" y="-7" font-family="Helvetica,sans-Serif" font-size="10.00">stdio.h</text>
</a>
</g>
</g>
<!-- Node2&#45;&gt;Node3 -->
<g id="edge2" class="edge">
<title>Node2&#45;&gt;Node3</title>
<path fill="none" stroke="#63b8ff" d="M115.51,-54.51C98.5,-46.24 73.01,-33.84 53.41,-24.31"/>
<polygon fill="#63b8ff" stroke="#63b8ff" points="55.1,-21.25 44.58,-20.02 52.04,-27.54 55.1,-21.25"/>
</g>
<!-- Node4 -->
<g id="node4" class="node">
<title>Node4</title>
<g id="a_node4"><a xlink:title=" ">
<polygon fill="#e0e0e0" stroke="#999999" points="124,-19 68,-19 68,0 124,0 124,-19"/>
<text text-anchor="middle" x="96" y="-7" font-family="Helvetica,sans-Serif" font-size="10.00">stdarg.h</text>
</a>
</g>
</g>
<!-- Node2&#45;&gt;Node4 -->
<g id="edge3" class="edge">
<title>Node2&#45;&gt;Node4</title>
<path fill="none" stroke="#63b8ff" d="M127.73,-54.75C122.64,-47.66 115.3,-37.42 108.97,-28.59"/>
<polygon fill="#63b8ff" stroke="#63b8ff" points="111.96,-26.76 103.29,-20.67 106.28,-30.84 111.96,-26.76"/>
</g>
<!-- Node5 -->
<g id="node5" class="node">
<title>Node5</title>
<g id="a_node5"><a xlink:title=" ">
<polygon fill="#e0e0e0" stroke="#999999" points="204,-19 142,-19 142,0 204,0 204,-19"/>
<text text-anchor="middle" x="173" y="-7" font-family="Helvetica,sans-Serif" font-size="10.00">stdbool.h</text>
</a>
</g>
</g>
<!-- Node2&#45;&gt;Node5 -->
<g id="edge4" class="edge">
<title>Node2&#45;&gt;Node5</title>
<path fill="none" stroke="#63b8ff" d="M140.44,-54.75C145.66,-47.66 153.19,-37.42 159.69,-28.59"/>
<polygon fill="#63b8ff" stroke="#63b8ff" points="162.42,-30.79 165.52,-20.66 156.78,-26.64 162.42,-30.79"/>
</g>
<!-- Node6 -->
<g id="node6" class="node">
<title>Node6</title>
<g id="a_node6"><a xlink:title=" ">
<polygon fill="#e0e0e0" stroke="#999999" points="270,-19 222,-19 222,0 270,0 270,-19"/>
<text text-anchor="middle" x="246" y="-7" font-family="Helvetica,sans-Serif" font-size="10.00">time.h</text>
</a>
</g>
</g>
<!-- Node2&#45;&gt;Node6 -->
<g id="edge5" class="edge">
<title>Node2&#45;&gt;Node6</title>
<path fill="none" stroke="#63b8ff" d="M153,-54.51C170.56,-46.2 196.92,-33.73 217.09,-24.18"/>
<polygon fill="#63b8ff" stroke="#63b8ff" points="218.37,-27.45 225.91,-20.01 215.38,-21.12 218.37,-27.45"/>
</g>
</g>
</svg>
