<?xml version="1.0" encoding="UTF-8" standalone="no"?>
<!DOCTYPE svg PUBLIC "-//W3C//DTD SVG 1.1//EN"
 "http://www.w3.org/Graphics/SVG/1.1/DTD/svg11.dtd">
<!-- Generated by graphviz version 7.1.0 (0)
 -->
<!-- Title: /home/joshuam/Dropbox/Projects/little&#45;hell&#45;engine/src/audio/midifile.c Pages: 1 -->
<svg width="696pt" height="104pt"
 viewBox="0.00 0.00 696.00 104.00" xmlns="http://www.w3.org/2000/svg" xmlns:xlink="http://www.w3.org/1999/xlink">
<g id="graph0" class="graph" transform="scale(1 1) rotate(0) translate(4 100)">
<title>/home/joshuam/Dropbox/Projects/little&#45;hell&#45;engine/src/audio/midifile.c</title>
<!-- Node1 -->
<g id="node1" class="node">
<title>Node1</title>
<g id="a_node1"><a xlink:title=" ">
<polygon fill="#999999" stroke="#666666" points="397.5,-96 248.5,-96 248.5,-55 397.5,-55 397.5,-96"/>
<text text-anchor="start" x="256.5" y="-84" font-family="Helvetica,sans-Serif" font-size="10.00">/home/joshuam/Dropbox</text>
<text text-anchor="start" x="256.5" y="-73" font-family="Helvetica,sans-Serif" font-size="10.00">/Projects/little&#45;hell</text>
<text text-anchor="middle" x="323" y="-62" font-family="Helvetica,sans-Serif" font-size="10.00">&#45;engine/src/audio/midifile.c</text>
</a>
</g>
</g>
<!-- Node2 -->
<g id="node2" class="node">
<title>Node2</title>
<g id="a_node2"><a xlink:title=" ">
<polygon fill="#e0e0e0" stroke="#999999" points="50,-19 0,-19 0,0 50,0 50,-19"/>
<text text-anchor="middle" x="25" y="-7" font-family="Helvetica,sans-Serif" font-size="10.00">stdio.h</text>
</a>
</g>
</g>
<!-- Node1&#45;&gt;Node2 -->
<g id="edge1" class="edge">
<title>Node1&#45;&gt;Node2</title>
<path fill="none" stroke="#63b8ff" d="M248.02,-59.52C197.77,-49.3 129.87,-35.15 61.24,-19.45"/>
<polygon fill="#63b8ff" stroke="#63b8ff" points="62.23,-16.09 51.7,-17.26 60.66,-22.91 62.23,-16.09"/>
</g>
<!-- Node3 -->
<g id="node3" class="node">
<title>Node3</title>
<g id="a_node3"><a xlink:title=" ">
<polygon fill="#e0e0e0" stroke="#999999" points="121.5,-19 68.5,-19 68.5,0 121.5,0 121.5,-19"/>
<text text-anchor="middle" x="95" y="-7" font-family="Helvetica,sans-Serif" font-size="10.00">stdlib.h</text>
</a>
</g>
</g>
<!-- Node1&#45;&gt;Node3 -->
<g id="edge2" class="edge">
<title>Node1&#45;&gt;Node3</title>
<path fill="none" stroke="#63b8ff" d="M251.8,-54.51C212.41,-43.46 165.05,-30.16 132.76,-21.1"/>
<polygon fill="#63b8ff" stroke="#63b8ff" points="134.03,-17.82 123.46,-18.49 132.14,-24.56 134.03,-17.82"/>
</g>
<!-- Node4 -->
<g id="node4" class="node">
<title>Node4</title>
<g id="a_node4"><a xlink:title=" ">
<polygon fill="#e0e0e0" stroke="#999999" points="192.5,-19 139.5,-19 139.5,0 192.5,0 192.5,-19"/>
<text text-anchor="middle" x="166" y="-7" font-family="Helvetica,sans-Serif" font-size="10.00">string.h</text>
</a>
</g>
</g>
<!-- Node1&#45;&gt;Node4 -->
<g id="edge3" class="edge">
<title>Node1&#45;&gt;Node4</title>
<path fill="none" stroke="#63b8ff" d="M274.18,-54.6C249.39,-44.49 219.96,-32.5 198.06,-23.57"/>
<polygon fill="#63b8ff" stroke="#63b8ff" points="199.65,-20.44 189.06,-19.9 197,-26.92 199.65,-20.44"/>
</g>
<!-- Node5 -->
<g id="node5" class="node">
<title>Node5</title>
<g id="a_node5"><a xlink:title=" ">
<polygon fill="#e0e0e0" stroke="#999999" points="267,-19 211,-19 211,0 267,0 267,-19"/>
<text text-anchor="middle" x="239" y="-7" font-family="Helvetica,sans-Serif" font-size="10.00">assert.h</text>
</a>
</g>
</g>
<!-- Node1&#45;&gt;Node5 -->
<g id="edge4" class="edge">
<title>Node1&#45;&gt;Node5</title>
<path fill="none" stroke="#63b8ff" d="M296.88,-54.6C284.81,-45.41 270.69,-34.65 259.42,-26.06"/>
<polygon fill="#63b8ff" stroke="#63b8ff" points="261.65,-23.36 251.57,-20.08 257.41,-28.92 261.65,-23.36"/>
</g>
<!-- Node6 -->
<g id="node6" class="node">
<title>Node6</title>
<g id="a_node6"><a xlink:title=" ">
<polygon fill="#e0e0e0" stroke="#999999" points="360.5,-19 285.5,-19 285.5,0 360.5,0 360.5,-19"/>
<text text-anchor="middle" x="323" y="-7" font-family="Helvetica,sans-Serif" font-size="10.00">doomtype.h</text>
</a>
</g>
</g>
<!-- Node1&#45;&gt;Node6 -->
<g id="edge5" class="edge">
<title>Node1&#45;&gt;Node6</title>
<path fill="none" stroke="#63b8ff" d="M323,-54.6C323,-46.98 323,-38.3 323,-30.66"/>
<polygon fill="#63b8ff" stroke="#63b8ff" points="326.5,-30.68 323,-20.68 319.5,-30.68 326.5,-30.68"/>
</g>
<!-- Node7 -->
<g id="node7" class="node">
<title>Node7</title>
<g id="a_node7"><a xlink:title=" ">
<polygon fill="#e0e0e0" stroke="#999999" points="437.5,-19 378.5,-19 378.5,0 437.5,0 437.5,-19"/>
<text text-anchor="middle" x="408" y="-7" font-family="Helvetica,sans-Serif" font-size="10.00">i_swap.h</text>
</a>
</g>
</g>
<!-- Node1&#45;&gt;Node7 -->
<g id="edge6" class="edge">
<title>Node1&#45;&gt;Node7</title>
<path fill="none" stroke="#63b8ff" d="M349.43,-54.6C361.64,-45.41 375.93,-34.65 387.34,-26.06"/>
<polygon fill="#63b8ff" stroke="#63b8ff" points="389.4,-28.88 395.29,-20.07 385.19,-23.29 389.4,-28.88"/>
</g>
<!-- Node8 -->
<g id="node8" class="node">
<title>Node8</title>
<g id="a_node8"><a xlink:title=" ">
<polygon fill="#e0e0e0" stroke="#999999" points="526,-19 456,-19 456,0 526,0 526,-19"/>
<text text-anchor="middle" x="491" y="-7" font-family="Helvetica,sans-Serif" font-size="10.00">i_system.h</text>
</a>
</g>
</g>
<!-- Node1&#45;&gt;Node8 -->
<g id="edge7" class="edge">
<title>Node1&#45;&gt;Node8</title>
<path fill="none" stroke="#63b8ff" d="M375.24,-54.6C402.01,-44.4 433.84,-32.28 457.33,-23.32"/>
<polygon fill="#63b8ff" stroke="#63b8ff" points="458.31,-26.7 466.41,-19.87 455.81,-20.16 458.31,-26.7"/>
</g>
<!-- Node9 -->
<g id="node9" class="node">
<title>Node9</title>
<g id="a_node9"><a xlink:title=" ">
<polygon fill="#e0e0e0" stroke="#999999" points="608,-19 544,-19 544,0 608,0 608,-19"/>
<text text-anchor="middle" x="576" y="-7" font-family="Helvetica,sans-Serif" font-size="10.00">m_misc.h</text>
</a>
</g>
</g>
<!-- Node1&#45;&gt;Node9 -->
<g id="edge8" class="edge">
<title>Node1&#45;&gt;Node9</title>
<path fill="none" stroke="#63b8ff" d="M397.88,-55.56C441.85,-44.43 495.87,-30.77 532.81,-21.42"/>
<polygon fill="#63b8ff" stroke="#63b8ff" points="533.4,-24.89 542.23,-19.04 531.68,-18.1 533.4,-24.89"/>
</g>
<!-- Node10 -->
<g id="node10" class="node">
<title>Node10</title>
<g id="a_node10"><a xlink:href="midifile_8h.html" target="_top" xlink:title=" ">
<polygon fill="white" stroke="#666666" points="688,-19 626,-19 626,0 688,0 688,-19"/>
<text text-anchor="middle" x="657" y="-7" font-family="Helvetica,sans-Serif" font-size="10.00">midifile.h</text>
</a>
</g>
</g>
<!-- Node1&#45;&gt;Node10 -->
<g id="edge9" class="edge">
<title>Node1&#45;&gt;Node10</title>
<path fill="none" stroke="#63b8ff" d="M397.71,-60.88C454.51,-50.42 534.9,-35.37 614.37,-19.49"/>
<polygon fill="#63b8ff" stroke="#63b8ff" points="614.97,-22.94 624.09,-17.55 613.59,-16.08 614.97,-22.94"/>
</g>
</g>
</svg>
