<?xml version="1.0" encoding="UTF-8" standalone="no"?>
<!DOCTYPE svg PUBLIC "-//W3C//DTD SVG 1.1//EN"
 "http://www.w3.org/Graphics/SVG/1.1/DTD/svg11.dtd">
<!-- Generated by graphviz version 7.1.0 (0)
 -->
<!-- Title: /home/joshuam/Dropbox/Projects/little&#45;hell&#45;engine/src/audio/midifallback.c Pages: 1 -->
<svg width="183pt" height="159pt"
 viewBox="0.00 0.00 182.50 159.00" xmlns="http://www.w3.org/2000/svg" xmlns:xlink="http://www.w3.org/1999/xlink">
<g id="graph0" class="graph" transform="scale(1 1) rotate(0) translate(4 155)">
<title>/home/joshuam/Dropbox/Projects/little&#45;hell&#45;engine/src/audio/midifallback.c</title>
<!-- Node1 -->
<g id="node1" class="node">
<title>Node1</title>
<g id="a_node1"><a xlink:title=" ">
<polygon fill="#999999" stroke="#666666" points="173,-151 0,-151 0,-110 173,-110 173,-151"/>
<text text-anchor="start" x="8" y="-139" font-family="Helvetica,sans-Serif" font-size="10.00">/home/joshuam/Dropbox</text>
<text text-anchor="start" x="8" y="-128" font-family="Helvetica,sans-Serif" font-size="10.00">/Projects/little&#45;hell</text>
<text text-anchor="middle" x="86.5" y="-117" font-family="Helvetica,sans-Serif" font-size="10.00">&#45;engine/src/audio/midifallback.c</text>
</a>
</g>
</g>
<!-- Node2 -->
<g id="node2" class="node">
<title>Node2</title>
<g id="a_node2"><a xlink:title=" ">
<polygon fill="#e0e0e0" stroke="#999999" points="80,-19 5,-19 5,0 80,0 80,-19"/>
<text text-anchor="middle" x="42.5" y="-7" font-family="Helvetica,sans-Serif" font-size="10.00">doomtype.h</text>
</a>
</g>
</g>
<!-- Node1&#45;&gt;Node2 -->
<g id="edge1" class="edge">
<title>Node1&#45;&gt;Node2</title>
<path fill="none" stroke="#63b8ff" d="M60.81,-109.63C50.57,-100.1 39.94,-87.75 34.5,-74 28.99,-60.06 31.51,-43.18 35.12,-30.33"/>
<polygon fill="#63b8ff" stroke="#63b8ff" points="38.42,-31.5 38.23,-20.91 31.77,-29.31 38.42,-31.5"/>
</g>
<!-- Node3 -->
<g id="node3" class="node">
<title>Node3</title>
<g id="a_node3"><a xlink:href="midifile_8h.html" target="_top" xlink:title=" ">
<polygon fill="white" stroke="#666666" points="174.5,-19 112.5,-19 112.5,0 174.5,0 174.5,-19"/>
<text text-anchor="middle" x="143.5" y="-7" font-family="Helvetica,sans-Serif" font-size="10.00">midifile.h</text>
</a>
</g>
</g>
<!-- Node1&#45;&gt;Node3 -->
<g id="edge2" class="edge">
<title>Node1&#45;&gt;Node3</title>
<path fill="none" stroke="#63b8ff" d="M111.41,-109.67C121.64,-100.06 132.47,-87.65 138.5,-74 144.53,-60.34 145.59,-43.43 145.25,-30.49"/>
<polygon fill="#63b8ff" stroke="#63b8ff" points="148.75,-30.44 144.66,-20.66 141.76,-30.85 148.75,-30.44"/>
</g>
<!-- Node4 -->
<g id="node4" class="node">
<title>Node4</title>
<g id="a_node4"><a xlink:href="midifallback_8h.html" target="_top" xlink:title=" ">
<polygon fill="white" stroke="#666666" points="129.5,-74 43.5,-74 43.5,-55 129.5,-55 129.5,-74"/>
<text text-anchor="middle" x="86.5" y="-62" font-family="Helvetica,sans-Serif" font-size="10.00">midifallback.h</text>
</a>
</g>
</g>
<!-- Node1&#45;&gt;Node4 -->
<g id="edge3" class="edge">
<title>Node1&#45;&gt;Node4</title>
<path fill="none" stroke="#63b8ff" d="M86.5,-109.6C86.5,-101.98 86.5,-93.3 86.5,-85.66"/>
<polygon fill="#63b8ff" stroke="#63b8ff" points="90,-85.68 86.5,-75.68 83,-85.68 90,-85.68"/>
</g>
<!-- Node4&#45;&gt;Node2 -->
<g id="edge4" class="edge">
<title>Node4&#45;&gt;Node2</title>
<path fill="none" stroke="#63b8ff" d="M79.23,-54.75C73.22,-47.5 64.49,-36.98 57.04,-28.02"/>
<polygon fill="#63b8ff" stroke="#63b8ff" points="59.97,-26.07 50.89,-20.61 54.58,-30.54 59.97,-26.07"/>
</g>
<!-- Node4&#45;&gt;Node3 -->
<g id="edge5" class="edge">
<title>Node4&#45;&gt;Node3</title>
<path fill="none" stroke="#63b8ff" d="M96.17,-54.51C104.24,-47 115.97,-36.1 125.72,-27.03"/>
<polygon fill="#63b8ff" stroke="#63b8ff" points="127.93,-29.76 132.87,-20.39 123.16,-24.63 127.93,-29.76"/>
</g>
</g>
</svg>
