<?xml version="1.0" encoding="UTF-8" standalone="no"?>
<!DOCTYPE svg PUBLIC "-//W3C//DTD SVG 1.1//EN"
 "http://www.w3.org/Graphics/SVG/1.1/DTD/svg11.dtd">
<!-- Generated by graphviz version 7.1.0 (0)
 -->
<!-- Title: /home/joshuam/Dropbox/Projects/little&#45;hell&#45;engine/src/audio/midifile.h Pages: 1 -->
<svg width="406pt" height="203pt"
 viewBox="0.00 0.00 406.00 203.00" xmlns="http://www.w3.org/2000/svg" xmlns:xlink="http://www.w3.org/1999/xlink">
<g id="graph0" class="graph" transform="scale(1 1) rotate(0) translate(4 199)">
<title>/home/joshuam/Dropbox/Projects/little&#45;hell&#45;engine/src/audio/midifile.h</title>
<!-- Node1 -->
<g id="node1" class="node">
<title>Node1</title>
<g id="a_node1"><a xlink:title=" ">
<polygon fill="#999999" stroke="#666666" points="219,-195 70,-195 70,-154 219,-154 219,-195"/>
<text text-anchor="start" x="78" y="-183" font-family="Helvetica,sans-Serif" font-size="10.00">/home/joshuam/Dropbox</text>
<text text-anchor="start" x="78" y="-172" font-family="Helvetica,sans-Serif" font-size="10.00">/Projects/little&#45;hell</text>
<text text-anchor="middle" x="144.5" y="-161" font-family="Helvetica,sans-Serif" font-size="10.00">&#45;engine/src/audio/midifile.h</text>
</a>
</g>
</g>
<!-- Node2 -->
<g id="node2" class="node">
<title>Node2</title>
<g id="a_node2"><a xlink:href="midifallback_8c.html" target="_top" xlink:title=" ">
<polygon fill="white" stroke="#666666" points="173,-41 0,-41 0,0 173,0 173,-41"/>
<text text-anchor="start" x="8" y="-29" font-family="Helvetica,sans-Serif" font-size="10.00">/home/joshuam/Dropbox</text>
<text text-anchor="start" x="8" y="-18" font-family="Helvetica,sans-Serif" font-size="10.00">/Projects/little&#45;hell</text>
<text text-anchor="middle" x="86.5" y="-7" font-family="Helvetica,sans-Serif" font-size="10.00">&#45;engine/src/audio/midifallback.c</text>
</a>
</g>
</g>
<!-- Node1&#45;&gt;Node2 -->
<g id="edge1" class="edge">
<title>Node1&#45;&gt;Node2</title>
<path fill="none" stroke="#63b8ff" d="M78.42,-147.75C66.46,-140.02 55.56,-130.24 48.5,-118 34.01,-92.89 52.78,-61.2 68.7,-41.13"/>
<polygon fill="#63b8ff" stroke="#63b8ff" points="76.49,-150.67 86.88,-152.74 80.05,-144.65 76.49,-150.67"/>
</g>
<!-- Node3 -->
<g id="node3" class="node">
<title>Node3</title>
<g id="a_node3"><a xlink:href="midifallback_8h.html" target="_top" xlink:title=" ">
<polygon fill="white" stroke="#666666" points="231,-118 58,-118 58,-77 231,-77 231,-118"/>
<text text-anchor="start" x="66" y="-106" font-family="Helvetica,sans-Serif" font-size="10.00">/home/joshuam/Dropbox</text>
<text text-anchor="start" x="66" y="-95" font-family="Helvetica,sans-Serif" font-size="10.00">/Projects/little&#45;hell</text>
<text text-anchor="middle" x="144.5" y="-84" font-family="Helvetica,sans-Serif" font-size="10.00">&#45;engine/src/audio/midifallback.h</text>
</a>
</g>
</g>
<!-- Node1&#45;&gt;Node3 -->
<g id="edge2" class="edge">
<title>Node1&#45;&gt;Node3</title>
<path fill="none" stroke="#63b8ff" d="M144.5,-142.36C144.5,-134.24 144.5,-125.7 144.5,-118.33"/>
<polygon fill="#63b8ff" stroke="#63b8ff" points="141,-142.28 144.5,-152.28 148,-142.28 141,-142.28"/>
</g>
<!-- Node4 -->
<g id="node4" class="node">
<title>Node4</title>
<g id="a_node4"><a xlink:href="midifile_8c.html" target="_top" xlink:title=" ">
<polygon fill="white" stroke="#666666" points="398,-118 249,-118 249,-77 398,-77 398,-118"/>
<text text-anchor="start" x="257" y="-106" font-family="Helvetica,sans-Serif" font-size="10.00">/home/joshuam/Dropbox</text>
<text text-anchor="start" x="257" y="-95" font-family="Helvetica,sans-Serif" font-size="10.00">/Projects/little&#45;hell</text>
<text text-anchor="middle" x="323.5" y="-84" font-family="Helvetica,sans-Serif" font-size="10.00">&#45;engine/src/audio/midifile.c</text>
</a>
</g>
</g>
<!-- Node1&#45;&gt;Node4 -->
<g id="edge4" class="edge">
<title>Node1&#45;&gt;Node4</title>
<path fill="none" stroke="#63b8ff" d="M202.61,-149.15C226.27,-139.24 253.29,-127.92 275.78,-118.49"/>
<polygon fill="#63b8ff" stroke="#63b8ff" points="201.27,-145.92 193.39,-153.01 203.97,-152.38 201.27,-145.92"/>
</g>
<!-- Node3&#45;&gt;Node2 -->
<g id="edge3" class="edge">
<title>Node3&#45;&gt;Node2</title>
<path fill="none" stroke="#63b8ff" d="M122.38,-67.9C115.53,-59.04 108.13,-49.47 101.84,-41.33"/>
<polygon fill="#63b8ff" stroke="#63b8ff" points="119.45,-69.83 128.34,-75.6 124.99,-65.55 119.45,-69.83"/>
</g>
</g>
</svg>
