<?xml version="1.0" encoding="UTF-8" standalone="no"?>
<!DOCTYPE svg PUBLIC "-//W3C//DTD SVG 1.1//EN"
 "http://www.w3.org/Graphics/SVG/1.1/DTD/svg11.dtd">
<!-- Generated by graphviz version 7.1.0 (0)
 -->
<!-- Title: /home/joshuam/Dropbox/Projects/little&#45;hell&#45;engine/src/audio/music.c Pages: 1 -->
<svg width="301pt" height="159pt"
 viewBox="0.00 0.00 301.00 159.00" xmlns="http://www.w3.org/2000/svg" xmlns:xlink="http://www.w3.org/1999/xlink">
<g id="graph0" class="graph" transform="scale(1 1) rotate(0) translate(4 155)">
<title>/home/joshuam/Dropbox/Projects/little&#45;hell&#45;engine/src/audio/music.c</title>
<!-- Node1 -->
<g id="node1" class="node">
<title>Node1</title>
<g id="a_node1"><a xlink:title=" ">
<polygon fill="#999999" stroke="#666666" points="206.5,-151 65.5,-151 65.5,-110 206.5,-110 206.5,-151"/>
<text text-anchor="start" x="73.5" y="-139" font-family="Helvetica,sans-Serif" font-size="10.00">/home/joshuam/Dropbox</text>
<text text-anchor="start" x="73.5" y="-128" font-family="Helvetica,sans-Serif" font-size="10.00">/Projects/little&#45;hell</text>
<text text-anchor="middle" x="136" y="-117" font-family="Helvetica,sans-Serif" font-size="10.00">&#45;engine/src/audio/music.c</text>
</a>
</g>
</g>
<!-- Node2 -->
<g id="node2" class="node">
<title>Node2</title>
<g id="a_node2"><a xlink:title=" ">
<polygon fill="#e0e0e0" stroke="#999999" points="50,-74 0,-74 0,-55 50,-55 50,-74"/>
<text text-anchor="middle" x="25" y="-62" font-family="Helvetica,sans-Serif" font-size="10.00">stdio.h</text>
</a>
</g>
</g>
<!-- Node1&#45;&gt;Node2 -->
<g id="edge1" class="edge">
<title>Node1&#45;&gt;Node2</title>
<path fill="none" stroke="#63b8ff" d="M101.49,-109.6C84.84,-100 65.23,-88.7 50.04,-79.94"/>
<polygon fill="#63b8ff" stroke="#63b8ff" points="52.04,-77.05 41.63,-75.09 48.54,-83.11 52.04,-77.05"/>
</g>
<!-- Node3 -->
<g id="node3" class="node">
<title>Node3</title>
<g id="a_node3"><a xlink:title=" ">
<polygon fill="#e0e0e0" stroke="#999999" points="121.5,-74 68.5,-74 68.5,-55 121.5,-55 121.5,-74"/>
<text text-anchor="middle" x="95" y="-62" font-family="Helvetica,sans-Serif" font-size="10.00">stdlib.h</text>
</a>
</g>
</g>
<!-- Node1&#45;&gt;Node3 -->
<g id="edge2" class="edge">
<title>Node1&#45;&gt;Node3</title>
<path fill="none" stroke="#63b8ff" d="M123.25,-109.6C117.96,-101.33 111.85,-91.8 106.67,-83.72"/>
<polygon fill="#63b8ff" stroke="#63b8ff" points="109.71,-81.97 101.37,-75.44 103.81,-85.75 109.71,-81.97"/>
</g>
<!-- Node4 -->
<g id="node4" class="node">
<title>Node4</title>
<g id="a_node4"><a xlink:title=" ">
<polygon fill="#e0e0e0" stroke="#999999" points="216.5,-74 139.5,-74 139.5,-55 216.5,-55 216.5,-74"/>
<text text-anchor="middle" x="178" y="-62" font-family="Helvetica,sans-Serif" font-size="10.00">SDL_mixer.h</text>
</a>
</g>
</g>
<!-- Node1&#45;&gt;Node4 -->
<g id="edge3" class="edge">
<title>Node1&#45;&gt;Node4</title>
<path fill="none" stroke="#63b8ff" d="M149.06,-109.6C154.48,-101.33 160.74,-91.8 166.04,-83.72"/>
<polygon fill="#63b8ff" stroke="#63b8ff" points="168.92,-85.71 171.48,-75.43 163.07,-81.87 168.92,-85.71"/>
</g>
<!-- Node5 -->
<g id="node5" class="node">
<title>Node5</title>
<g id="a_node5"><a xlink:href="music_8h.html" target="_top" xlink:title=" ">
<polygon fill="white" stroke="#666666" points="289.5,-74 234.5,-74 234.5,-55 289.5,-55 289.5,-74"/>
<text text-anchor="middle" x="262" y="-62" font-family="Helvetica,sans-Serif" font-size="10.00">music.h</text>
</a>
</g>
</g>
<!-- Node1&#45;&gt;Node5 -->
<g id="edge4" class="edge">
<title>Node1&#45;&gt;Node5</title>
<path fill="none" stroke="#63b8ff" d="M175.18,-109.6C194.44,-99.82 217.19,-88.26 234.57,-79.43"/>
<polygon fill="#63b8ff" stroke="#63b8ff" points="235.93,-82.67 243.27,-75.02 232.76,-76.42 235.93,-82.67"/>
</g>
<!-- Node6 -->
<g id="node6" class="node">
<title>Node6</title>
<g id="a_node6"><a xlink:title=" ">
<polygon fill="#e0e0e0" stroke="#999999" points="293,-19 231,-19 231,0 293,0 293,-19"/>
<text text-anchor="middle" x="262" y="-7" font-family="Helvetica,sans-Serif" font-size="10.00">stdbool.h</text>
</a>
</g>
</g>
<!-- Node5&#45;&gt;Node6 -->
<g id="edge5" class="edge">
<title>Node5&#45;&gt;Node6</title>
<path fill="none" stroke="#63b8ff" d="M262,-54.75C262,-48.27 262,-39.16 262,-30.9"/>
<polygon fill="#63b8ff" stroke="#63b8ff" points="265.5,-30.96 262,-20.96 258.5,-30.96 265.5,-30.96"/>
</g>
</g>
</svg>
