<?xml version="1.0" encoding="UTF-8" standalone="no"?>
<!DOCTYPE svg PUBLIC "-//W3C//DTD SVG 1.1//EN"
 "http://www.w3.org/Graphics/SVG/1.1/DTD/svg11.dtd">
<!-- Generated by graphviz version 7.1.0 (0)
 -->
<!-- Title: /home/joshuam/Dropbox/Projects/little&#45;hell&#45;engine/src/util/registry.c Pages: 1 -->
<svg width="433pt" height="159pt"
 viewBox="0.00 0.00 433.16 159.00" xmlns="http://www.w3.org/2000/svg" xmlns:xlink="http://www.w3.org/1999/xlink">
<g id="graph0" class="graph" transform="scale(1 1) rotate(0) translate(4 155)">
<title>/home/joshuam/Dropbox/Projects/little&#45;hell&#45;engine/src/util/registry.c</title>
<!-- Node1 -->
<g id="node1" class="node">
<title>Node1</title>
<g id="a_node1"><a xlink:title=" ">
<polygon fill="#999999" stroke="#666666" points="214.66,-151 77.66,-151 77.66,-110 214.66,-110 214.66,-151"/>
<text text-anchor="start" x="85.66" y="-139" font-family="Helvetica,sans-Serif" font-size="10.00">/home/joshuam/Dropbox</text>
<text text-anchor="start" x="85.66" y="-128" font-family="Helvetica,sans-Serif" font-size="10.00">/Projects/little&#45;hell</text>
<text text-anchor="middle" x="146.16" y="-117" font-family="Helvetica,sans-Serif" font-size="10.00">&#45;engine/src/util/registry.c</text>
</a>
</g>
</g>
<!-- Node2 -->
<g id="node2" class="node">
<title>Node2</title>
<g id="a_node2"><a xlink:title=" ">
<polygon fill="#e0e0e0" stroke="#999999" points="108.16,-19 58.16,-19 58.16,0 108.16,0 108.16,-19"/>
<text text-anchor="middle" x="83.16" y="-7" font-family="Helvetica,sans-Serif" font-size="10.00">stdio.h</text>
</a>
</g>
</g>
<!-- Node1&#45;&gt;Node2 -->
<g id="edge1" class="edge">
<title>Node1&#45;&gt;Node2</title>
<path fill="none" stroke="#63b8ff" d="M77.41,-119.71C49.88,-112.04 20.8,-98.37 4.16,-74 -10.91,-51.93 19.69,-33.7 47.08,-22.52"/>
<polygon fill="#63b8ff" stroke="#63b8ff" points="48.21,-25.84 56.3,-18.99 45.71,-19.3 48.21,-25.84"/>
</g>
<!-- Node3 -->
<g id="node3" class="node">
<title>Node3</title>
<g id="a_node3"><a xlink:title=" ">
<polygon fill="#e0e0e0" stroke="#999999" points="66.66,-74 13.66,-74 13.66,-55 66.66,-55 66.66,-74"/>
<text text-anchor="middle" x="40.16" y="-62" font-family="Helvetica,sans-Serif" font-size="10.00">stdlib.h</text>
</a>
</g>
</g>
<!-- Node1&#45;&gt;Node3 -->
<g id="edge2" class="edge">
<title>Node1&#45;&gt;Node3</title>
<path fill="none" stroke="#63b8ff" d="M113.2,-109.6C97.45,-100.09 78.94,-88.91 64.49,-80.19"/>
<polygon fill="#63b8ff" stroke="#63b8ff" points="66.45,-77.29 56.08,-75.11 62.83,-83.28 66.45,-77.29"/>
</g>
<!-- Node4 -->
<g id="node4" class="node">
<title>Node4</title>
<g id="a_node4"><a xlink:title=" ">
<polygon fill="#e0e0e0" stroke="#999999" points="137.66,-74 84.66,-74 84.66,-55 137.66,-55 137.66,-74"/>
<text text-anchor="middle" x="111.16" y="-62" font-family="Helvetica,sans-Serif" font-size="10.00">string.h</text>
</a>
</g>
</g>
<!-- Node1&#45;&gt;Node4 -->
<g id="edge3" class="edge">
<title>Node1&#45;&gt;Node4</title>
<path fill="none" stroke="#63b8ff" d="M135.27,-109.6C130.8,-101.43 125.66,-92.02 121.27,-84"/>
<polygon fill="#63b8ff" stroke="#63b8ff" points="124.49,-82.58 116.62,-75.49 118.35,-85.94 124.49,-82.58"/>
</g>
<!-- Node5 -->
<g id="node5" class="node">
<title>Node5</title>
<g id="a_node5"><a xlink:title=" ">
<polygon fill="#e0e0e0" stroke="#999999" points="208.66,-74 155.66,-74 155.66,-55 208.66,-55 208.66,-74"/>
<text text-anchor="middle" x="182.16" y="-62" font-family="Helvetica,sans-Serif" font-size="10.00">stdint.h</text>
</a>
</g>
</g>
<!-- Node1&#45;&gt;Node5 -->
<g id="edge4" class="edge">
<title>Node1&#45;&gt;Node5</title>
<path fill="none" stroke="#63b8ff" d="M157.35,-109.6C161.95,-101.43 167.24,-92.02 171.75,-84"/>
<polygon fill="#63b8ff" stroke="#63b8ff" points="174.69,-85.91 176.54,-75.48 168.59,-82.48 174.69,-85.91"/>
</g>
<!-- Node6 -->
<g id="node6" class="node">
<title>Node6</title>
<g id="a_node6"><a xlink:href="registry_8h.html" target="_top" xlink:title=" ">
<polygon fill="white" stroke="#666666" points="289.16,-74 227.16,-74 227.16,-55 289.16,-55 289.16,-74"/>
<text text-anchor="middle" x="258.16" y="-62" font-family="Helvetica,sans-Serif" font-size="10.00">registry.h</text>
</a>
</g>
</g>
<!-- Node1&#45;&gt;Node6 -->
<g id="edge5" class="edge">
<title>Node1&#45;&gt;Node6</title>
<path fill="none" stroke="#63b8ff" d="M180.98,-109.6C197.78,-100 217.56,-88.7 232.89,-79.94"/>
<polygon fill="#63b8ff" stroke="#63b8ff" points="234.44,-83.08 241.39,-75.08 230.97,-77 234.44,-83.08"/>
</g>
<!-- Node7 -->
<g id="node7" class="node">
<title>Node7</title>
<g id="a_node7"><a xlink:href="log_8h.html" target="_top" xlink:title=" ">
<polygon fill="white" stroke="#666666" points="348.66,-74 307.66,-74 307.66,-55 348.66,-55 348.66,-74"/>
<text text-anchor="middle" x="328.16" y="-62" font-family="Helvetica,sans-Serif" font-size="10.00">log.h</text>
</a>
</g>
</g>
<!-- Node1&#45;&gt;Node7 -->
<g id="edge6" class="edge">
<title>Node1&#45;&gt;Node7</title>
<path fill="none" stroke="#63b8ff" d="M202.75,-109.6C233.65,-98.73 270.77,-85.68 296.56,-76.61"/>
<polygon fill="#63b8ff" stroke="#63b8ff" points="297.52,-79.98 305.79,-73.37 295.2,-73.38 297.52,-79.98"/>
</g>
<!-- Node7&#45;&gt;Node2 -->
<g id="edge7" class="edge">
<title>Node7&#45;&gt;Node2</title>
<path fill="none" stroke="#63b8ff" d="M307.23,-57.36C304.19,-56.53 301.1,-55.72 298.16,-55 235.89,-39.76 162.64,-25.33 119.71,-17.23"/>
<polygon fill="#63b8ff" stroke="#63b8ff" points="120.41,-13.8 109.93,-15.4 119.12,-20.68 120.41,-13.8"/>
</g>
<!-- Node8 -->
<g id="node8" class="node">
<title>Node8</title>
<g id="a_node8"><a xlink:title=" ">
<polygon fill="#e0e0e0" stroke="#999999" points="279.16,-19 223.16,-19 223.16,0 279.16,0 279.16,-19"/>
<text text-anchor="middle" x="251.16" y="-7" font-family="Helvetica,sans-Serif" font-size="10.00">stdarg.h</text>
</a>
</g>
</g>
<!-- Node7&#45;&gt;Node8 -->
<g id="edge8" class="edge">
<title>Node7&#45;&gt;Node8</title>
<path fill="none" stroke="#63b8ff" d="M315.09,-54.51C303.63,-46.62 286.72,-34.98 273.17,-25.65"/>
<polygon fill="#63b8ff" stroke="#63b8ff" points="275.49,-23 265.27,-20.22 271.53,-28.77 275.49,-23"/>
</g>
<!-- Node9 -->
<g id="node9" class="node">
<title>Node9</title>
<g id="a_node9"><a xlink:title=" ">
<polygon fill="#e0e0e0" stroke="#999999" points="359.16,-19 297.16,-19 297.16,0 359.16,0 359.16,-19"/>
<text text-anchor="middle" x="328.16" y="-7" font-family="Helvetica,sans-Serif" font-size="10.00">stdbool.h</text>
</a>
</g>
</g>
<!-- Node7&#45;&gt;Node9 -->
<g id="edge9" class="edge">
<title>Node7&#45;&gt;Node9</title>
<path fill="none" stroke="#63b8ff" d="M328.16,-54.75C328.16,-48.27 328.16,-39.16 328.16,-30.9"/>
<polygon fill="#63b8ff" stroke="#63b8ff" points="331.66,-30.96 328.16,-20.96 324.66,-30.96 331.66,-30.96"/>
</g>
<!-- Node10 -->
<g id="node10" class="node">
<title>Node10</title>
<g id="a_node10"><a xlink:title=" ">
<polygon fill="#e0e0e0" stroke="#999999" points="425.16,-19 377.16,-19 377.16,0 425.16,0 425.16,-19"/>
<text text-anchor="middle" x="401.16" y="-7" font-family="Helvetica,sans-Serif" font-size="10.00">time.h</text>
</a>
</g>
</g>
<!-- Node7&#45;&gt;Node10 -->
<g id="edge10" class="edge">
<title>Node7&#45;&gt;Node10</title>
<path fill="none" stroke="#63b8ff" d="M340.54,-54.51C351.3,-46.7 367.13,-35.21 379.91,-25.93"/>
<polygon fill="#63b8ff" stroke="#63b8ff" points="381.7,-28.95 387.73,-20.25 377.58,-23.29 381.7,-28.95"/>
</g>
</g>
</svg>
