<?xml version="1.0" encoding="UTF-8" standalone="no"?>
<!DOCTYPE svg PUBLIC "-//W3C//DTD SVG 1.1//EN"
 "http://www.w3.org/Graphics/SVG/1.1/DTD/svg11.dtd">
<!-- Generated by graphviz version 7.1.0 (0)
 -->
<!-- Title: /home/joshuam/Dropbox/Projects/little&#45;hell&#45;engine/src/system/system.c Pages: 1 -->
<svg width="1392pt" height="159pt"
 viewBox="0.00 0.00 1392.00 159.00" xmlns="http://www.w3.org/2000/svg" xmlns:xlink="http://www.w3.org/1999/xlink">
<g id="graph0" class="graph" transform="scale(1 1) rotate(0) translate(4 155)">
<title>/home/joshuam/Dropbox/Projects/little&#45;hell&#45;engine/src/system/system.c</title>
<!-- Node1 -->
<g id="node1" class="node">
<title>Node1</title>
<g id="a_node1"><a xlink:title=" ">
<polygon fill="#999999" stroke="#666666" points="691,-151 534,-151 534,-110 691,-110 691,-151"/>
<text text-anchor="start" x="542" y="-139" font-family="Helvetica,sans-Serif" font-size="10.00">/home/joshuam/Dropbox</text>
<text text-anchor="start" x="542" y="-128" font-family="Helvetica,sans-Serif" font-size="10.00">/Projects/little&#45;hell</text>
<text text-anchor="middle" x="612.5" y="-117" font-family="Helvetica,sans-Serif" font-size="10.00">&#45;engine/src/system/system.c</text>
</a>
</g>
</g>
<!-- Node2 -->
<g id="node2" class="node">
<title>Node2</title>
<g id="a_node2"><a xlink:title=" ">
<polygon fill="#e0e0e0" stroke="#999999" points="53,-74 0,-74 0,-55 53,-55 53,-74"/>
<text text-anchor="middle" x="26.5" y="-62" font-family="Helvetica,sans-Serif" font-size="10.00">stdlib.h</text>
</a>
</g>
</g>
<!-- Node1&#45;&gt;Node2 -->
<g id="edge1" class="edge">
<title>Node1&#45;&gt;Node2</title>
<path fill="none" stroke="#63b8ff" d="M533.66,-124.03C427.38,-116.08 232.46,-99.43 67.5,-74 66.49,-73.84 65.48,-73.68 64.45,-73.51"/>
<polygon fill="#63b8ff" stroke="#63b8ff" points="65.29,-70.11 54.82,-71.75 64.03,-76.99 65.29,-70.11"/>
</g>
<!-- Node3 -->
<g id="node3" class="node">
<title>Node3</title>
<g id="a_node3"><a xlink:title=" ">
<polygon fill="#e0e0e0" stroke="#999999" points="89.5,-19 39.5,-19 39.5,0 89.5,0 89.5,-19"/>
<text text-anchor="middle" x="64.5" y="-7" font-family="Helvetica,sans-Serif" font-size="10.00">stdio.h</text>
</a>
</g>
</g>
<!-- Node1&#45;&gt;Node3 -->
<g id="edge2" class="edge">
<title>Node1&#45;&gt;Node3</title>
<path fill="none" stroke="#63b8ff" d="M533.5,-126.87C414.64,-121.86 196.28,-108.19 126.5,-74 105.59,-63.76 87.76,-43.48 76.66,-28.58"/>
<polygon fill="#63b8ff" stroke="#63b8ff" points="79.61,-26.69 70.97,-20.55 73.9,-30.74 79.61,-26.69"/>
</g>
<!-- Node4 -->
<g id="node4" class="node">
<title>Node4</title>
<g id="a_node4"><a xlink:title=" ">
<polygon fill="#e0e0e0" stroke="#999999" points="260,-74 207,-74 207,-55 260,-55 260,-74"/>
<text text-anchor="middle" x="233.5" y="-62" font-family="Helvetica,sans-Serif" font-size="10.00">string.h</text>
</a>
</g>
</g>
<!-- Node1&#45;&gt;Node4 -->
<g id="edge3" class="edge">
<title>Node1&#45;&gt;Node4</title>
<path fill="none" stroke="#63b8ff" d="M533.54,-118.36C466.42,-108.52 367.27,-93.1 271.27,-74.22"/>
<polygon fill="#63b8ff" stroke="#63b8ff" points="272.16,-70.83 261.67,-72.32 270.8,-77.7 272.16,-70.83"/>
</g>
<!-- Node5 -->
<g id="node5" class="node">
<title>Node5</title>
<g id="a_node5"><a xlink:title=" ">
<polygon fill="#e0e0e0" stroke="#999999" points="163.5,-19 107.5,-19 107.5,0 163.5,0 163.5,-19"/>
<text text-anchor="middle" x="135.5" y="-7" font-family="Helvetica,sans-Serif" font-size="10.00">stdarg.h</text>
</a>
</g>
</g>
<!-- Node1&#45;&gt;Node5 -->
<g id="edge4" class="edge">
<title>Node1&#45;&gt;Node5</title>
<path fill="none" stroke="#63b8ff" d="M533.52,-125.75C405.66,-118.88 164.92,-102.32 138.5,-74 127.79,-62.52 128.06,-44.18 130.41,-30.15"/>
<polygon fill="#63b8ff" stroke="#63b8ff" points="133.76,-31.21 132.47,-20.7 126.92,-29.72 133.76,-31.21"/>
</g>
<!-- Node6 -->
<g id="node6" class="node">
<title>Node6</title>
<g id="a_node6"><a xlink:title=" ">
<polygon fill="#e0e0e0" stroke="#999999" points="334.5,-74 278.5,-74 278.5,-55 334.5,-55 334.5,-74"/>
<text text-anchor="middle" x="306.5" y="-62" font-family="Helvetica,sans-Serif" font-size="10.00">unistd.h</text>
</a>
</g>
</g>
<!-- Node1&#45;&gt;Node6 -->
<g id="edge5" class="edge">
<title>Node1&#45;&gt;Node6</title>
<path fill="none" stroke="#63b8ff" d="M533.54,-113.69C482.61,-103.38 414.65,-89.42 345.82,-74.47"/>
<polygon fill="#63b8ff" stroke="#63b8ff" points="346.76,-71.09 336.25,-72.38 345.27,-77.93 346.76,-71.09"/>
</g>
<!-- Node7 -->
<g id="node7" class="node">
<title>Node7</title>
<g id="a_node7"><a xlink:title=" ">
<polygon fill="#e0e0e0" stroke="#999999" points="396.5,-74 352.5,-74 352.5,-55 396.5,-55 396.5,-74"/>
<text text-anchor="middle" x="374.5" y="-62" font-family="Helvetica,sans-Serif" font-size="10.00">SDL.h</text>
</a>
</g>
</g>
<!-- Node1&#45;&gt;Node7 -->
<g id="edge6" class="edge">
<title>Node1&#45;&gt;Node7</title>
<path fill="none" stroke="#63b8ff" d="M538.17,-109.51C494.5,-97.77 441.43,-83.5 407.8,-74.45"/>
<polygon fill="#63b8ff" stroke="#63b8ff" points="408.79,-71.1 398.22,-71.88 406.97,-77.86 408.79,-71.1"/>
</g>
<!-- Node8 -->
<g id="node8" class="node">
<title>Node8</title>
<g id="a_node8"><a xlink:href="log_8h.html" target="_top" xlink:title=" ">
<polygon fill="white" stroke="#666666" points="189,-74 148,-74 148,-55 189,-55 189,-74"/>
<text text-anchor="middle" x="168.5" y="-62" font-family="Helvetica,sans-Serif" font-size="10.00">log.h</text>
</a>
</g>
</g>
<!-- Node1&#45;&gt;Node8 -->
<g id="edge7" class="edge">
<title>Node1&#45;&gt;Node8</title>
<path fill="none" stroke="#63b8ff" d="M533.72,-122.32C452.46,-114.15 321.98,-98.91 200.37,-74.1"/>
<polygon fill="#63b8ff" stroke="#63b8ff" points="201.37,-70.73 190.87,-72.14 199.95,-77.59 201.37,-70.73"/>
</g>
<!-- Node11 -->
<g id="node11" class="node">
<title>Node11</title>
<g id="a_node11"><a xlink:title=" ">
<polygon fill="#e0e0e0" stroke="#999999" points="470,-74 415,-74 415,-55 470,-55 470,-74"/>
<text text-anchor="middle" x="442.5" y="-62" font-family="Helvetica,sans-Serif" font-size="10.00">config.h</text>
</a>
</g>
</g>
<!-- Node1&#45;&gt;Node11 -->
<g id="edge12" class="edge">
<title>Node1&#45;&gt;Node11</title>
<path fill="none" stroke="#63b8ff" d="M559.64,-109.6C532.55,-99.4 500.35,-87.28 476.57,-78.32"/>
<polygon fill="#63b8ff" stroke="#63b8ff" points="477.96,-75.11 467.37,-74.86 475.5,-81.66 477.96,-75.11"/>
</g>
<!-- Node12 -->
<g id="node12" class="node">
<title>Node12</title>
<g id="a_node12"><a xlink:title=" ">
<polygon fill="#e0e0e0" stroke="#999999" points="563,-74 488,-74 488,-55 563,-55 563,-74"/>
<text text-anchor="middle" x="525.5" y="-62" font-family="Helvetica,sans-Serif" font-size="10.00">doomtype.h</text>
</a>
</g>
</g>
<!-- Node1&#45;&gt;Node12 -->
<g id="edge13" class="edge">
<title>Node1&#45;&gt;Node12</title>
<path fill="none" stroke="#63b8ff" d="M585.45,-109.6C572.82,-100.31 558.03,-89.43 546.3,-80.8"/>
<polygon fill="#63b8ff" stroke="#63b8ff" points="548.62,-78.17 538.49,-75.06 544.48,-83.8 548.62,-78.17"/>
</g>
<!-- Node13 -->
<g id="node13" class="node">
<title>Node13</title>
<g id="a_node13"><a xlink:title=" ">
<polygon fill="#e0e0e0" stroke="#999999" points="643.5,-74 581.5,-74 581.5,-55 643.5,-55 643.5,-74"/>
<text text-anchor="middle" x="612.5" y="-62" font-family="Helvetica,sans-Serif" font-size="10.00">m_argv.h</text>
</a>
</g>
</g>
<!-- Node1&#45;&gt;Node13 -->
<g id="edge14" class="edge">
<title>Node1&#45;&gt;Node13</title>
<path fill="none" stroke="#63b8ff" d="M612.5,-109.6C612.5,-101.98 612.5,-93.3 612.5,-85.66"/>
<polygon fill="#63b8ff" stroke="#63b8ff" points="616,-85.68 612.5,-75.68 609,-85.68 616,-85.68"/>
</g>
<!-- Node14 -->
<g id="node14" class="node">
<title>Node14</title>
<g id="a_node14"><a xlink:title=" ">
<polygon fill="#e0e0e0" stroke="#999999" points="731.5,-74 661.5,-74 661.5,-55 731.5,-55 731.5,-74"/>
<text text-anchor="middle" x="696.5" y="-62" font-family="Helvetica,sans-Serif" font-size="10.00">m_config.h</text>
</a>
</g>
</g>
<!-- Node1&#45;&gt;Node14 -->
<g id="edge15" class="edge">
<title>Node1&#45;&gt;Node14</title>
<path fill="none" stroke="#63b8ff" d="M638.62,-109.6C650.69,-100.41 664.81,-89.65 676.08,-81.06"/>
<polygon fill="#63b8ff" stroke="#63b8ff" points="678.09,-83.92 683.93,-75.08 673.85,-78.36 678.09,-83.92"/>
</g>
<!-- Node15 -->
<g id="node15" class="node">
<title>Node15</title>
<g id="a_node15"><a xlink:title=" ">
<polygon fill="#e0e0e0" stroke="#999999" points="813.5,-74 749.5,-74 749.5,-55 813.5,-55 813.5,-74"/>
<text text-anchor="middle" x="781.5" y="-62" font-family="Helvetica,sans-Serif" font-size="10.00">m_misc.h</text>
</a>
</g>
</g>
<!-- Node1&#45;&gt;Node15 -->
<g id="edge16" class="edge">
<title>Node1&#45;&gt;Node15</title>
<path fill="none" stroke="#63b8ff" d="M665.05,-109.6C691.98,-99.4 724,-87.28 747.63,-78.32"/>
<polygon fill="#63b8ff" stroke="#63b8ff" points="748.65,-81.68 756.77,-74.87 746.17,-75.14 748.65,-81.68"/>
</g>
<!-- Node16 -->
<g id="node16" class="node">
<title>Node16</title>
<g id="a_node16"><a xlink:title=" ">
<polygon fill="#e0e0e0" stroke="#999999" points="903.5,-74 831.5,-74 831.5,-55 903.5,-55 903.5,-74"/>
<text text-anchor="middle" x="867.5" y="-62" font-family="Helvetica,sans-Serif" font-size="10.00">i_joystick.h</text>
</a>
</g>
</g>
<!-- Node1&#45;&gt;Node16 -->
<g id="edge17" class="edge">
<title>Node1&#45;&gt;Node16</title>
<path fill="none" stroke="#63b8ff" d="M691.44,-109.69C733.99,-99.01 785.02,-86.2 821.17,-77.13"/>
<polygon fill="#63b8ff" stroke="#63b8ff" points="821.56,-80.64 830.41,-74.81 819.86,-73.85 821.56,-80.64"/>
</g>
<!-- Node17 -->
<g id="node17" class="node">
<title>Node17</title>
<g id="a_node17"><a xlink:title=" ">
<polygon fill="#e0e0e0" stroke="#999999" points="985,-74 922,-74 922,-55 985,-55 985,-74"/>
<text text-anchor="middle" x="953.5" y="-62" font-family="Helvetica,sans-Serif" font-size="10.00">i_sound.h</text>
</a>
</g>
</g>
<!-- Node1&#45;&gt;Node17 -->
<g id="edge18" class="edge">
<title>Node1&#45;&gt;Node17</title>
<path fill="none" stroke="#63b8ff" d="M691.23,-115.41C749.19,-104.93 830.2,-90.05 910.87,-74.29"/>
<polygon fill="#63b8ff" stroke="#63b8ff" points="911.1,-77.81 920.24,-72.45 909.76,-70.94 911.1,-77.81"/>
</g>
<!-- Node18 -->
<g id="node18" class="node">
<title>Node18</title>
<g id="a_node18"><a xlink:title=" ">
<polygon fill="#e0e0e0" stroke="#999999" points="1062,-74 1003,-74 1003,-55 1062,-55 1062,-74"/>
<text text-anchor="middle" x="1032.5" y="-62" font-family="Helvetica,sans-Serif" font-size="10.00">i_timer.h</text>
</a>
</g>
</g>
<!-- Node1&#45;&gt;Node18 -->
<g id="edge19" class="edge">
<title>Node1&#45;&gt;Node18</title>
<path fill="none" stroke="#63b8ff" d="M691.43,-119.81C766.31,-110.21 882.19,-94.31 991.44,-74.46"/>
<polygon fill="#63b8ff" stroke="#63b8ff" points="991.98,-77.92 1001.18,-72.67 990.72,-71.03 991.98,-77.92"/>
</g>
<!-- Node19 -->
<g id="node19" class="node">
<title>Node19</title>
<g id="a_node19"><a xlink:title=" ">
<polygon fill="#e0e0e0" stroke="#999999" points="1141,-74 1080,-74 1080,-55 1141,-55 1141,-74"/>
<text text-anchor="middle" x="1110.5" y="-62" font-family="Helvetica,sans-Serif" font-size="10.00">i_video.h</text>
</a>
</g>
</g>
<!-- Node1&#45;&gt;Node19 -->
<g id="edge20" class="edge">
<title>Node1&#45;&gt;Node19</title>
<path fill="none" stroke="#63b8ff" d="M691.2,-122.26C780.46,-113.54 930.56,-97.33 1068.7,-74.34"/>
<polygon fill="#63b8ff" stroke="#63b8ff" points="1069.12,-77.82 1078.4,-72.71 1067.96,-70.91 1069.12,-77.82"/>
</g>
<!-- Node20 -->
<g id="node20" class="node">
<title>Node20</title>
<g id="a_node20"><a xlink:title=" ">
<polygon fill="#e0e0e0" stroke="#999999" points="1229.5,-74 1159.5,-74 1159.5,-55 1229.5,-55 1229.5,-74"/>
<text text-anchor="middle" x="1194.5" y="-62" font-family="Helvetica,sans-Serif" font-size="10.00">i_system.h</text>
</a>
</g>
</g>
<!-- Node1&#45;&gt;Node20 -->
<g id="edge21" class="edge">
<title>Node1&#45;&gt;Node20</title>
<path fill="none" stroke="#63b8ff" d="M691.18,-123.57C793.92,-115.33 979.56,-98.79 1147.7,-74.3"/>
<polygon fill="#63b8ff" stroke="#63b8ff" points="1148.12,-77.77 1157.51,-72.86 1147.1,-70.85 1148.12,-77.77"/>
</g>
<!-- Node21 -->
<g id="node21" class="node">
<title>Node21</title>
<g id="a_node21"><a xlink:title=" ">
<polygon fill="#e0e0e0" stroke="#999999" points="1307,-74 1248,-74 1248,-55 1307,-55 1307,-74"/>
<text text-anchor="middle" x="1277.5" y="-62" font-family="Helvetica,sans-Serif" font-size="10.00">w_wad.h</text>
</a>
</g>
</g>
<!-- Node1&#45;&gt;Node21 -->
<g id="edge22" class="edge">
<title>Node1&#45;&gt;Node21</title>
<path fill="none" stroke="#63b8ff" d="M691.45,-125.7C808.39,-119.37 1034.65,-104.4 1236.64,-74.08"/>
<polygon fill="#63b8ff" stroke="#63b8ff" points="1236.9,-77.58 1246.27,-72.61 1235.85,-70.65 1236.9,-77.58"/>
</g>
<!-- Node22 -->
<g id="node22" class="node">
<title>Node22</title>
<g id="a_node22"><a xlink:title=" ">
<polygon fill="#e0e0e0" stroke="#999999" points="1384,-74 1325,-74 1325,-55 1384,-55 1384,-74"/>
<text text-anchor="middle" x="1354.5" y="-62" font-family="Helvetica,sans-Serif" font-size="10.00">z_zone.h</text>
</a>
</g>
</g>
<!-- Node1&#45;&gt;Node22 -->
<g id="edge23" class="edge">
<title>Node1&#45;&gt;Node22</title>
<path fill="none" stroke="#63b8ff" d="M691.31,-126.92C819.8,-121.92 1082.51,-108.36 1313.39,-74.27"/>
<polygon fill="#63b8ff" stroke="#63b8ff" points="1313.83,-77.75 1323.21,-72.81 1312.8,-70.82 1313.83,-77.75"/>
</g>
<!-- Node8&#45;&gt;Node3 -->
<g id="edge8" class="edge">
<title>Node8&#45;&gt;Node3</title>
<path fill="none" stroke="#63b8ff" d="M150.86,-54.51C134.77,-46.31 110.75,-34.07 92.13,-24.58"/>
<polygon fill="#63b8ff" stroke="#63b8ff" points="93.73,-21.47 83.23,-20.05 90.55,-27.7 93.73,-21.47"/>
</g>
<!-- Node8&#45;&gt;Node5 -->
<g id="edge9" class="edge">
<title>Node8&#45;&gt;Node5</title>
<path fill="none" stroke="#63b8ff" d="M163.05,-54.75C158.73,-47.81 152.54,-37.86 147.12,-29.16"/>
<polygon fill="#63b8ff" stroke="#63b8ff" points="150.12,-27.37 141.87,-20.73 144.18,-31.07 150.12,-27.37"/>
</g>
<!-- Node9 -->
<g id="node9" class="node">
<title>Node9</title>
<g id="a_node9"><a xlink:title=" ">
<polygon fill="#e0e0e0" stroke="#999999" points="243.5,-19 181.5,-19 181.5,0 243.5,0 243.5,-19"/>
<text text-anchor="middle" x="212.5" y="-7" font-family="Helvetica,sans-Serif" font-size="10.00">stdbool.h</text>
</a>
</g>
</g>
<!-- Node8&#45;&gt;Node9 -->
<g id="edge10" class="edge">
<title>Node8&#45;&gt;Node9</title>
<path fill="none" stroke="#63b8ff" d="M175.77,-54.75C181.78,-47.5 190.51,-36.98 197.96,-28.02"/>
<polygon fill="#63b8ff" stroke="#63b8ff" points="200.42,-30.54 204.11,-20.61 195.03,-26.07 200.42,-30.54"/>
</g>
<!-- Node10 -->
<g id="node10" class="node">
<title>Node10</title>
<g id="a_node10"><a xlink:title=" ">
<polygon fill="#e0e0e0" stroke="#999999" points="309.5,-19 261.5,-19 261.5,0 309.5,0 309.5,-19"/>
<text text-anchor="middle" x="285.5" y="-7" font-family="Helvetica,sans-Serif" font-size="10.00">time.h</text>
</a>
</g>
</g>
<!-- Node8&#45;&gt;Node10 -->
<g id="edge11" class="edge">
<title>Node8&#45;&gt;Node10</title>
<path fill="none" stroke="#63b8ff" d="M188.35,-54.51C206.78,-46.16 234.48,-33.61 255.59,-24.05"/>
<polygon fill="#63b8ff" stroke="#63b8ff" points="256.9,-27.3 264.57,-19.98 254.01,-20.92 256.9,-27.3"/>
</g>
</g>
</svg>
